<svg width="248" height="190" viewBox="0 0 248 190" fill="none" xmlns="http://www.w3.org/2000/svg">
<path d="M18.5531 17.3075L71.0128 95.9217L124 172.33L177.026 95.8665L229.446 17.3075H18.5531ZM126.916 176.535C126.916 176.537 126.916 176.537 126.919 176.541C126.919 176.537 126.916 176.537 126.916 176.535ZM121.119 176.487C121.104 176.508 121.089 176.53 121.075 176.548L121.119 176.487ZM126.92 176.541C126.923 176.543 126.925 176.546 126.925 176.548C126.925 176.546 126.922 176.543 126.92 176.541ZM124 182.514C122.524 182.514 121.162 181.812 120.353 180.634L64.4336 99.9963L8.52765 16.2182C7.67244 14.939 7.61696 13.3147 8.38377 11.982C9.1488 10.6496 10.6145 9.82158 12.2066 9.82158H235.793C237.387 9.82158 238.852 10.6496 239.618 11.982C240.384 13.3147 240.329 14.939 239.472 16.2194L183.607 99.9411L127.641 180.645C126.859 181.804 125.488 182.514 124 182.514Z" fill="#2D2F52"/>
<path d="M12.2066 5.54321C8.97497 5.54321 6.00385 7.22298 4.45124 9.92549C2.89834 12.628 3.01194 15.9199 4.74668 18.5163L60.6132 102.241L116.561 182.917C118.206 185.35 120.985 186.793 124 186.793C127.017 186.793 129.77 185.383 131.368 183.022L187.306 102.357L243.251 18.5216C244.988 15.921 245.1 12.628 243.548 9.92549C241.996 7.22298 239.025 5.54321 235.793 5.54321H12.2066ZM124 190C119.839 190 116.005 188.009 113.747 184.673L57.794 103.988L1.91231 20.2388C-0.482754 16.6562 -0.638201 12.1137 1.50323 8.38303C3.64823 4.65436 7.74778 2.3354 12.2066 2.3354H235.793C240.253 2.3354 244.354 4.65436 246.496 8.38303C248.639 12.1137 248.483 16.6584 246.086 20.2456L190.124 104.104L134.182 184.775C131.972 188.043 128.163 190 124 190Z" fill="#353D4C"/>
<path d="M207.461 18.3393H40.5402V0.841625H207.461V18.3393Z" fill="white"/>
<path opacity="0.97" d="M50.1556 27.5511C48.6736 26.065 47.9332 23.8126 47.9332 20.795V8.20156C47.9332 5.50244 48.7952 3.45892 50.5216 2.07554C52.2484 0.692432 54.8217 2.09808e-05 58.2402 2.09808e-05C61.0084 2.09808e-05 63.159 0.386135 64.6909 1.15667C66.2215 1.92861 67.2793 3.05214 67.8658 4.52611C68.4531 6.00121 68.7465 7.89526 68.7465 10.2108H60.5379V7.59011C60.5379 6.88582 60.3988 6.34175 60.1221 5.95564C59.845 5.56981 59.3478 5.37732 58.6317 5.37732C57.0349 5.37732 56.2379 6.10397 56.2379 7.55472V21.7139C56.2379 22.5985 56.4013 23.2677 56.7267 23.722C57.0524 24.1755 57.6226 24.4019 58.436 24.4019C59.2517 24.4019 59.8207 24.1755 60.1464 23.722C60.4718 23.2677 60.6352 22.5985 60.6352 21.7139V17.5275H58.3885V12.4907H68.6492V29.5086H65.277L63.86 27.058C62.3605 28.8725 60.0488 29.7804 56.9225 29.7804C53.8926 29.7804 51.6376 29.0373 50.1556 27.5511Z" fill="#2D2F52"/>
<path opacity="0.97" d="M82.5713 20.1139H86.3825L84.5262 5.24143H84.1358L82.5713 20.1139ZM73.2874 29.5086L77.3431 0.272051H91.5621L95.5679 29.5086H87.605L87.0173 24.777H81.9365L81.4485 29.5086H73.2874Z" fill="#2D2F52"/>
<path opacity="0.97" d="M100.551 29.5086V0.272051H113.35L116.87 18.1069L120.387 0.272051H133.285V29.5086H125.615V8.44159L120.777 29.5086H113.254L108.123 8.44159V29.5086H100.551Z" fill="#2D2F52"/>
<path opacity="0.97" d="M139.05 29.5086V0.272051H147.16V29.5086H139.05Z" fill="#2D2F52"/>
<path opacity="0.97" d="M152.973 29.5086V0.272051H161.622L165.481 14.2599V0.272051H173.592V29.5086H165.383L161.182 14.8725V29.5086H152.973Z" fill="#2D2F52"/>
<path opacity="0.97" d="M181.628 27.5511C180.145 26.065 179.404 23.8126 179.404 20.795V8.20156C179.404 5.50244 180.267 3.45892 181.994 2.07554C183.721 0.692432 186.294 2.09808e-05 189.714 2.09808e-05C192.481 2.09808e-05 194.632 0.386135 196.163 1.15667C197.694 1.92861 198.753 3.05214 199.338 4.52611C199.925 6.00121 200.219 7.89526 200.219 10.2108H192.01V7.59011C192.01 6.88582 191.871 6.34175 191.594 5.95564C191.318 5.56981 190.821 5.37732 190.104 5.37732C188.507 5.37732 187.71 6.10397 187.71 7.55472V21.7139C187.71 22.5985 187.874 23.2677 188.198 23.722C188.526 24.1755 189.095 24.4019 189.908 24.4019C190.724 24.4019 191.293 24.1755 191.619 23.722C191.945 23.2677 192.107 22.5985 192.107 21.7139V17.5275H189.86V12.4907H200.12V29.5086H196.749L195.332 27.058C193.834 28.8725 191.522 29.7804 188.395 29.7804C185.365 29.7804 183.11 29.0373 181.628 27.5511Z" fill="#2D2F52"/>
<path d="M91.5167 46.6644V37.0851H96.0129L97.2469 42.9292L98.4821 37.0851H103.011V46.6644H100.319V39.7633L98.62 46.6644H95.9782L94.1761 39.7633V46.6644H91.5167Z" fill="#2D2F52"/>
<path d="M112.071 43.5882H113.409L112.758 38.7139H112.62L112.071 43.5882ZM108.811 46.6644L110.236 37.0851H115.229L116.635 46.6644H113.838L113.633 45.1151H111.848L111.677 46.6644H108.811Z" fill="#2D2F52"/>
<path d="M123.686 46.6644V38.9262H121.937V37.0851H128.388V38.9262H126.638V46.6644H123.686Z" fill="#2D2F52"/>
<path d="M134.949 46.0948C134.304 45.6569 133.98 45.0554 133.98 44.2891V39.874C133.98 38.9228 134.272 38.2052 134.855 37.7209C135.439 37.2377 136.355 36.9957 137.6 36.9957C138.688 36.9957 139.562 37.1901 140.226 37.5763C140.89 37.9632 141.219 38.5203 141.219 39.2492V40.899H138.286V39.4836C138.286 39.2082 138.234 39.0191 138.133 38.9141C138.03 38.8113 137.852 38.7581 137.6 38.7581C137.336 38.7581 137.156 38.8178 137.061 38.9373C136.963 39.0567 136.914 39.2303 136.914 39.4615V44.267C136.914 44.5192 136.971 44.7027 137.086 44.8187C137.2 44.9339 137.371 44.9925 137.6 44.9925C138.058 44.9925 138.286 44.7502 138.286 44.267V42.5388H141.254V44.3446C141.254 45.951 140.013 46.753 137.532 46.753C136.457 46.753 135.595 46.5339 134.949 46.0948Z" fill="#2D2F52"/>
<path d="M147.123 46.6644V37.0851H150.058V40.5098H151.447V37.0851H154.381V46.6644H151.447V42.3166H150.058V46.6644H147.123Z" fill="#2D2F52"/>
<path d="M234.321 111.253L234.079 110.117C233.665 108.144 233.237 106.117 232.803 104.027C231.164 96.1705 229.322 88.7542 227.324 81.9837L227.242 81.6915C226.801 80.2088 226.339 78.7039 225.871 77.2376C221.812 64.5191 217.914 56.499 215.359 52.0097C213.912 49.4674 211.761 47.382 209.136 45.9799L208.667 45.7299L208.418 45.2745C206.559 41.8643 202.907 39.7469 198.887 39.7469H181.22C177.629 39.7469 174.361 41.4773 172.478 44.3788L172.168 44.8533L171.627 45.0656C169.185 46.013 167.062 47.5368 165.483 49.4697L165.282 49.7185C165.074 49.9761 164.848 50.2549 164.657 50.4794L164.14 51.0818L163.154 51.1106L84.6745 51.1095L83.8588 51.0818L83.342 50.4749C83.1462 50.2458 82.9098 49.9551 82.7173 49.7173L82.5087 49.4609C80.9374 47.5314 78.8147 46.0108 76.3734 45.0656L75.8299 44.8533L75.5205 44.3788C73.6387 41.4773 70.3709 39.7469 66.7801 39.7469H49.1126C45.092 39.7469 41.4418 41.8643 39.5831 45.2745L39.3351 45.7299L38.8646 45.9799C36.2426 47.382 34.0908 49.4663 32.6423 52.0119C31.1105 54.7043 29.5715 57.8181 28.0664 61.266C27.0712 63.5484 26.0653 66.0429 25.0792 68.6845C21.2971 78.8277 17.9727 90.7225 15.1973 104.032C14.7479 106.192 14.3062 108.29 13.8764 110.33L13.6759 111.275C9.81037 129.609 7.01663 142.854 7.76623 153.502C8.70391 166.837 15.7942 175.612 28.8382 179.578C30.8542 180.189 32.917 180.557 34.9609 180.678C56.7024 181.812 68.5448 155.478 73.9676 142.494L75.3467 139.182C75.7012 138.339 75.9688 137.719 76.1194 137.432L76.32 137.051C76.8056 136.125 77.3861 135.016 77.904 134.098L78.7011 132.691L80.9039 133.628C82.3465 134.201 83.8413 134.64 85.4476 134.964L85.8192 135.03C86.4093 135.138 87.0094 135.226 87.7708 135.309L88.2677 135.362C89.7788 135.495 91.3441 135.495 92.9015 135.356L93.4948 135.296C94.0987 135.229 94.7 135.141 95.4463 135.005L95.8216 134.936C97.335 134.632 98.8227 134.187 100.343 133.582L100.613 133.471C101.183 133.233 101.745 132.976 102.322 132.686L102.716 132.487H145.147L145.543 132.686C146.118 132.979 146.699 133.241 147.372 133.523L147.502 133.576C149.04 134.187 150.542 134.634 152.064 134.944L152.519 135.025C153.131 135.138 153.738 135.226 154.495 135.309L154.992 135.362C156.504 135.495 158.067 135.495 159.622 135.359L160.228 135.296C160.831 135.229 161.436 135.141 162.156 135.01L162.438 134.961C164.074 134.632 165.562 134.187 167.079 133.582L169.264 132.639L170.065 134.048C170.604 134.997 171.201 136.136 171.667 137.023L171.879 137.43C172.119 137.891 172.675 139.223 173.379 140.915C177.046 149.761 183.87 166.224 195.282 174.89C200.377 178.758 205.874 180.72 211.621 180.72C213.151 180.72 214.709 180.577 216.245 180.289C217.244 180.103 218.234 179.863 219.178 179.573C232.213 175.612 239.295 166.837 240.234 153.499C240.985 142.861 238.192 129.62 234.327 111.292L234.321 111.253Z" fill="white"/>
<path d="M229.346 112.202L227.26 112.591L229.344 112.191L229.279 111.881C228.807 109.65 228.323 107.347 227.828 104.976C226.219 97.2595 224.404 89.9505 222.432 83.2583L222.363 83.0228C221.93 81.559 221.477 80.0859 221.016 78.6453C217.081 66.3171 213.344 58.6121 210.9 54.3207C209.53 51.91 207.216 50.1255 204.507 49.3281C204.164 46.6587 201.774 44.5866 198.887 44.5866H181.22C179.235 44.5866 177.446 45.6394 176.554 47.3322L175.688 48.9788C173.256 49.3403 171.004 50.5821 169.49 52.4408L169.293 52.6808C167.641 54.721 166.64 55.9529 163.156 55.9529H84.8448C81.3604 55.9529 80.364 54.7232 78.7035 52.6786L78.5089 52.4366C76.9942 50.5821 74.7451 49.3403 72.313 48.9788L71.445 47.3322C70.5551 45.6394 68.7661 44.5866 66.7801 44.5866H49.1126C46.2263 44.5866 43.8369 46.6598 43.494 49.3281C40.7871 50.1255 38.4718 51.91 37.0999 54.3207C35.6514 56.8661 34.1881 59.8319 32.7488 63.1303C31.7859 65.3351 30.815 67.7478 29.8578 70.3034C26.1578 80.2297 22.9007 91.8944 20.1731 104.976C19.6795 107.347 19.1939 109.65 18.7234 111.881L18.6549 112.202C14.8624 130.181 12.122 143.174 12.8278 153.176C13.6343 164.648 19.2067 171.57 30.3665 174.962C31.9945 175.454 33.6343 175.752 35.2483 175.846C54.277 176.9 65.2551 150.353 69.9375 139.061C70.6352 137.382 71.2353 135.934 71.583 135.268L71.7835 134.886C73.7615 131.107 75.1925 128.373 76.9827 127.817L77.0791 127.784C77.4161 127.69 77.7972 127.646 78.2446 127.646H79.7903C80.1404 127.854 80.4972 128.053 80.8565 128.241L81.1288 128.379C81.5957 128.617 82.0721 128.838 82.6072 129.059L82.8321 129.15C83.9816 129.609 85.1761 129.963 86.3733 130.203L86.7602 130.275C87.2422 130.361 87.729 130.433 88.3187 130.499L88.707 130.538C89.9375 130.646 91.1878 130.648 92.4357 130.538L92.9142 130.485C93.4046 130.433 93.889 130.361 94.4843 130.253L94.7498 130.206C95.9583 129.963 97.1541 129.609 98.3036 129.15L98.5794 129.034C99.0614 128.835 99.5367 128.617 100.052 128.354L100.279 128.241C100.638 128.053 100.992 127.854 101.343 127.646H146.519C146.872 127.856 147.235 128.058 147.603 128.249L147.845 128.373C148.32 128.613 148.805 128.838 149.395 129.081C149.409 129.089 149.537 129.142 149.553 129.148C150.707 129.606 151.906 129.963 153.116 130.206L153.482 130.272C153.97 130.361 154.46 130.433 155.053 130.499L155.434 130.538C156.658 130.646 157.913 130.646 159.162 130.538L159.646 130.485C160.137 130.433 160.626 130.361 161.212 130.256L161.482 130.206C162.693 129.963 163.892 129.606 165.058 129.142L165.292 129.045C165.789 128.838 166.278 128.613 166.841 128.329C166.853 128.32 166.977 128.257 166.992 128.252C167.358 128.058 167.719 127.859 168.076 127.646H169.756C170.766 127.646 171.415 127.862 172.075 128.412C173.405 129.52 174.704 131.997 176.206 134.867L176.418 135.268C176.766 135.934 177.37 137.391 178.097 139.135C181.588 147.561 188.092 163.244 198.44 171.1C202.619 174.27 207.052 175.879 211.621 175.879C212.825 175.879 214.051 175.766 215.267 175.54C216.066 175.393 216.865 175.197 217.64 174.962C228.795 171.57 234.365 164.645 235.173 153.176C235.878 143.174 233.136 130.181 229.346 112.202Z" fill="#5F48D5"/>
<path d="M224.008 105.7C222.271 97.3626 220.434 90.186 218.62 84.049C218.639 84.1563 217.469 85.1238 217.579 86.6499C217.815 89.9151 219.288 95.2338 220.293 101.196C221.838 110.374 223.974 121.7 225.459 131.586C223.085 119.828 219.492 107.018 216.872 100.575C221.194 120.901 227.197 155.384 221.412 164.161C223.582 162.494 224.647 160.935 225.693 158.843C223.449 166.116 219.224 168.443 214.484 171.393C214.484 171.393 214.498 171.572 214.523 171.893C215.16 171.775 215.804 171.62 216.459 171.421C237.922 164.894 232.261 145.31 224.008 105.7Z" fill="white"/>
<path d="M157.296 124.421C150.59 124.421 145.152 119.082 145.152 112.497C145.152 105.912 150.59 100.575 157.296 100.575C164.007 100.575 169.444 105.912 169.444 112.497C169.444 119.082 164.007 124.421 157.296 124.421ZM157.296 96.6956C148.799 96.6956 141.907 103.461 141.907 111.804C141.907 120.147 148.799 126.91 157.296 126.91C165.797 126.91 172.688 120.147 172.688 111.804C172.688 103.461 165.797 96.6956 157.296 96.6956Z" fill="white"/>
<path d="M157.269 107.61C158.384 107.394 159.651 107.742 160.562 108.52C161.49 109.283 162.05 110.468 162.044 111.662C162.051 112.856 161.492 114.045 160.563 114.806C159.651 115.586 158.384 115.934 157.269 115.715C158.379 115.503 159.321 114.979 159.977 114.247C160.629 113.512 160.984 112.594 160.984 111.662C160.984 110.731 160.63 109.81 159.978 109.075C159.321 108.345 158.379 107.823 157.269 107.61Z" fill="white"/>
<path d="M90.5666 124.421C83.8587 124.421 78.4219 119.082 78.4219 112.497C78.4219 105.912 83.8587 100.575 90.5666 100.575C97.2748 100.575 102.713 105.912 102.713 112.497C102.713 119.082 97.2748 124.421 90.5666 124.421ZM90.5666 96.6956C82.0685 96.6956 75.1764 103.461 75.1764 111.804C75.1764 120.147 82.0685 126.91 90.5666 126.91C99.065 126.91 105.957 120.147 105.957 111.804C105.957 103.461 99.065 96.6956 90.5666 96.6956Z" fill="white"/>
<path d="M209.442 168.269C206.711 168.69 204.154 168.795 200.863 168.192C189.049 159.221 182.121 137.847 179.9 133.606C178.043 130.065 176.621 127.268 174.636 125.611C174.636 125.611 176.362 123.619 175.966 119.782C175.566 115.939 175.343 109.565 177.246 107.878C176.097 112.058 177.157 117.373 180.255 120.412C183.35 123.45 180.784 128.855 182.464 132.99C184.145 137.126 191.134 150.124 192.637 151.895C194.141 153.668 201.748 155.019 203.251 160.421C204.755 165.822 200.951 165.568 200.951 165.568C200.951 165.568 205.905 168.269 209.442 168.269Z" fill="white"/>
<path d="M120.563 114.308C119.152 114.137 117.783 113.442 116.73 112.42C115.677 111.391 114.964 110.001 114.751 108.52C114.648 107.779 114.674 107.021 114.802 106.275C114.936 105.525 115.215 104.807 115.579 104.126C116.334 102.781 117.531 101.655 118.976 100.973C120.416 100.278 122.084 100.041 123.659 100.284C124.451 100.392 125.218 100.641 125.925 100.981C126.638 101.312 127.277 101.771 127.833 102.296C128.394 102.816 128.858 103.424 129.203 104.082C129.557 104.735 129.804 105.434 129.909 106.148C130.14 107.569 129.893 109.028 129.183 110.206C129.751 107.543 128.677 104.926 126.717 103.483C125.752 102.747 124.583 102.3 123.392 102.186C122.797 102.136 122.19 102.134 121.608 102.252C121.022 102.352 120.45 102.518 119.925 102.786C118.856 103.281 117.955 104.091 117.33 105.066C117.028 105.558 116.786 106.089 116.627 106.647C116.488 107.209 116.396 107.792 116.408 108.387C116.433 109.564 116.819 110.755 117.534 111.795C118.241 112.843 119.294 113.708 120.563 114.308Z" fill="white"/>
<path d="M205.937 67.6074C203.829 65.447 201.413 63.7463 198.805 62.5387C195.944 62.1118 193.244 61.4539 190.398 61.3656C190.411 61.7404 190.424 62.1141 190.436 62.4888C201.523 63.1238 210.679 72.7294 210.679 84.0348C210.679 95.1566 201.275 103.87 189.274 103.87C177.322 103.87 167.959 95.1566 167.959 84.0348C167.959 73.1429 176.42 63.8315 186.912 62.5973C186.899 62.2491 186.887 61.9006 186.873 61.5513C185.294 61.7073 183.656 61.872 182.189 62.4093C180.649 62.9732 179.336 63.6721 177.688 63.6322C170.672 67.7634 165.837 75.4497 165.837 84.0348C165.837 96.292 176.131 105.896 189.274 105.896C202.467 105.896 212.802 96.292 212.802 84.0348C212.802 78.0682 210.3 72.0803 205.937 67.6074Z" fill="white"/>
<path d="M143.134 123.931H100.533L100.462 123.709L104.725 119.046C105.899 116.592 109.583 118.977 109.936 119.483C109.936 119.483 120.994 119.483 123.558 119.483C126.123 119.483 126.948 119.091 128.246 119.063C129.543 119.035 129.867 118.024 131.812 118.302C133.759 118.582 134.35 119.679 135.615 119.679C136.886 119.679 136.975 118.407 139.008 118.82C141.043 119.231 143.134 123.931 143.134 123.931Z" fill="white"/>
<path d="M217.293 79.729L215.899 81.2482C214.031 74.5793 206.839 63.1722 203.797 58.5238C202.953 57.2333 201.484 56.435 199.889 56.3996C194.687 56.2813 183.123 56.0701 181.078 56.4602C178.425 56.9669 175.007 59.7832 172.53 62.2567C170.054 64.7325 166.899 65.5497 166.014 62.8483H154.781V71.094C154.781 66.2517 149.21 65.4645 145.493 65.4645C141.779 65.4645 105.012 66.0284 103.54 65.4645C102.066 64.9018 101.181 64.172 98.0555 65.1848C94.9292 66.1977 93.2203 65.1274 93.2203 65.1274V70.6394C93.2203 70.6394 89.2688 64.1145 88.0303 63.6656C86.7915 63.2132 86.0835 64.7888 85.2597 64.7888C84.4345 64.7888 83.8436 63.3825 82.4903 63.3825C81.1311 63.3825 80.7196 65.4645 79.7161 65.353C78.7138 65.2378 73.9978 58.7129 71.4613 57.9973C68.9247 57.2763 49.0837 56.6017 45.3236 57.9973C41.5657 59.3872 38.4243 64.3234 37.0548 67.2813L36.3443 64.5601C37.9841 60.7972 39.4231 58.0216 40.5204 56.0953C41.7535 53.9292 44.1242 52.5781 46.7071 52.5781H70.8321C72.6294 52.5781 74.3315 53.3642 75.4347 54.7187C77.3454 57.0651 79.2631 59.6683 84.8447 59.6683H163.156C168.738 59.6683 170.656 57.0651 172.566 54.7187C173.671 53.3642 175.372 52.5781 177.17 52.5781H201.295C203.869 52.5781 206.24 53.9148 207.468 56.0744C209.706 60.0054 213.384 67.4882 217.293 79.729Z" fill="white"/>
<path d="M158.712 59.6683C158.803 63.4454 158.866 67.225 158.916 71.0023L158.972 76.6848C158.969 77.8083 158.766 78.9395 158.362 80.003C157.956 81.0645 157.359 82.0587 156.607 82.9322C155.103 84.676 152.955 85.9122 150.615 86.3512C150.033 86.4653 149.441 86.5259 148.848 86.5369L148.626 86.5392H148.437H148.066H147.324L144.355 86.5369C140.395 86.5281 136.437 86.5426 132.476 86.5095L120.599 86.4342L108.722 86.2994L102.785 86.2329C101.794 86.2131 100.804 86.1998 99.8146 86.1667L99.4426 86.1556L99.2572 86.15L99.0439 86.1389C98.76 86.1279 98.475 86.1004 98.1911 86.0639C97.6233 85.9841 97.0627 85.8516 96.5192 85.669C95.4344 85.3007 94.4312 84.7204 93.6143 83.974C92.7893 83.2331 92.1566 82.3375 91.722 81.3898C91.2851 80.4409 91.0486 79.4349 90.992 78.4396C90.9561 77.9453 90.984 77.4488 91.0338 76.9633C91.0614 76.719 91.0973 76.4812 91.1427 76.2469C91.1842 76.0113 91.226 75.7747 91.2747 75.5392C91.3684 76.0068 91.4449 76.4912 91.5307 76.9469C91.6188 77.4058 91.7511 77.8513 91.8899 78.2847C92.0338 78.717 92.2097 79.1351 92.4218 79.53C92.6235 79.9302 92.8599 80.3062 93.1159 80.66C94.1426 82.0819 95.621 83.0616 97.2389 83.4211C97.642 83.5151 98.0547 83.576 98.4717 83.5958C98.6803 83.6034 98.8888 83.6144 99.0997 83.6091L99.2572 83.6068L99.4426 83.6012L99.8146 83.5901C100.804 83.557 101.794 83.5426 102.785 83.5239L108.722 83.4576L120.599 83.3215L132.476 83.2473C136.437 83.2142 140.395 83.2275 144.355 83.2198L147.324 83.2165H148.066H148.437L148.621 83.2142L148.77 83.2108C149.165 83.1997 149.562 83.17 149.951 83.0947C151.505 82.8185 152.949 82.0057 153.974 80.84C154.485 80.2586 154.893 79.5951 155.172 78.8851C155.445 78.1732 155.605 77.4199 155.62 76.6536L155.679 71.0023C155.729 67.225 155.792 63.4454 155.882 59.6683H158.712Z" fill="white"/>
<path d="M62.9155 90.4482L62.0407 94.0144C61.2576 93.7633 60.1695 94.0452 59.2956 94.7993C58.6098 95.3943 58.2146 96.1405 58.1636 96.8063H54.3316V88.7288L58.7278 84.2593L53.4429 87.56C53.0223 87.8696 52.7707 88.3749 52.7707 88.9167V96.6902C52.7707 97.6114 53.4776 98.3522 54.3524 98.3522H59.2529C59.5994 98.3598 60.2493 98.2605 60.6328 98.1939C60.8657 98.1532 61.0894 98.0756 61.2923 97.9562C61.4972 97.8378 61.6978 97.6963 61.8867 97.5338C62.6826 96.8482 63.0258 95.9769 63.0175 95.2174L62.9155 90.4482Z" fill="white"/>
<path d="M78.6491 72.6077C79.0765 73.2635 79.4437 73.9545 79.7902 74.6611C80.1228 75.3699 80.4161 76.1008 80.6733 76.8461C81.1889 78.3368 81.5238 79.8937 81.6872 81.475C82.0082 84.6352 81.6374 87.905 80.5529 90.9789C79.4764 94.0562 77.6918 96.928 75.3498 99.3362C74.1796 100.541 72.8599 101.614 71.4416 102.556C70.0175 103.488 68.4821 104.274 66.8772 104.895C63.6605 106.12 60.1462 106.675 56.7046 106.404C55.8414 106.382 54.9921 106.22 54.1381 106.104L53.8192 106.054L53.5054 105.984L52.8786 105.838C52.4624 105.73 52.0385 105.656 51.6327 105.52C50.8217 105.243 49.9944 105.02 49.2204 104.661C48.831 104.489 48.437 104.334 48.0547 104.148L46.934 103.557C46.7486 103.457 46.5587 103.363 46.3778 103.258L45.8471 102.919L44.7928 102.236L43.8009 101.476L43.3084 101.094L42.8495 100.677L41.9389 99.8414C41.6502 99.5485 41.3743 99.2445 41.0988 98.9438C40.5239 98.3598 40.0582 97.6887 39.5562 97.0551C38.6408 95.7258 37.8091 94.3515 37.2297 92.8787C37.0859 92.5081 36.9144 92.1543 36.7963 91.7783L36.4427 90.6582C36.3176 90.2877 36.2413 89.9064 36.1636 89.5248C36.0814 89.1466 36.0037 88.7653 35.9331 88.3891C37.1739 91.2388 38.8286 93.8405 40.9214 96.0301C41.4728 96.5518 41.97 97.1137 42.568 97.5802C42.8587 97.8214 43.1382 98.0722 43.4289 98.31L44.3407 98.9769L44.7961 99.3053L45.276 99.6039L46.2262 100.201L47.2238 100.724L47.7185 100.984C47.8864 101.067 48.0615 101.135 48.2329 101.21L49.2596 101.658C49.6072 101.793 49.9665 101.904 50.3177 102.025C51.0118 102.3 51.7463 102.449 52.4624 102.648C52.8204 102.75 53.196 102.786 53.5588 102.86L54.1067 102.96L54.3802 103.013L54.6584 103.04C55.4 103.107 56.1345 103.223 56.8808 103.206C58.364 103.286 59.8517 103.168 61.3073 102.921C62.7638 102.684 64.1912 102.294 65.562 101.764C66.9363 101.246 68.2504 100.58 69.4856 99.7973C70.7288 99.0234 71.8783 98.1167 72.942 97.1191C75.0544 95.109 76.7648 92.6961 77.9606 90.0422C80.3639 84.7292 80.6534 78.465 78.6491 72.6077Z" fill="white"/>
<path d="M75.7706 124.282V124.284C72.3465 125.352 70.6236 128.794 68.101 133.606C65.2271 139.094 53.0489 173.087 34.0466 171.987C39.977 171.169 49.4661 162.641 54.3013 153.303C59.138 143.962 61.7324 137.996 62.6769 135.522C63.6191 133.045 61.1415 129.105 66.4487 127.417C67.3048 122.552 72.7069 120.586 75.7706 124.282Z" fill="white"/>
<path d="M35.4798 172.136C34.2064 172.062 32.8935 171.83 31.5426 171.421C10.0778 164.894 15.7383 145.31 23.9922 105.7C27.0814 90.8793 30.4812 79.7199 33.5274 71.5484L35.4914 71.094C32.2494 80.2628 22.5773 124.152 22.9317 140.473C24.2295 131.47 28.7396 110.2 30.6873 105.219C30.6873 105.219 26.4416 133.665 26.4416 141.598C17.8646 149.361 19.3641 166.069 35.4798 172.136Z" fill="white"/>
<path d="M45.5748 49.9894V52.6698H71.8783L69.547 48.2422C69.022 47.245 67.9526 46.6145 66.78 46.6145H49.1137C47.16 46.6145 45.5748 48.1262 45.5748 49.9894Z" fill="#2D2F52"/>
<path d="M166.306 122.242H169.756C172.132 122.242 174.109 122.93 175.8 124.34C177.972 126.151 179.427 128.932 181.272 132.451L181.482 132.852C181.946 133.737 182.538 135.165 183.36 137.145C186.66 145.104 192.802 159.912 201.964 166.871C205.976 169.917 209.973 171.017 214.186 170.234C214.768 170.127 215.352 169.985 215.921 169.812C224.807 167.111 228.874 162.027 229.523 152.813C230.178 143.528 227.359 130.17 223.791 113.258C223.298 110.925 222.792 108.516 222.273 106.028C220.678 98.3765 218.88 91.1482 216.928 84.5412L216.85 84.278C216.447 82.9212 216.026 81.5568 215.601 80.2221C211.804 68.3284 208.243 60.9741 205.923 56.8981C205.001 55.2738 203.227 54.2664 201.295 54.2664H177.168C175.921 54.2664 174.723 54.8215 173.963 55.7548L173.772 55.9903C171.832 58.38 169.418 61.3554 163.156 61.3554H84.8447C78.5841 61.3554 76.1692 58.38 74.2295 55.9903L74.0373 55.7536C73.2782 54.8215 72.08 54.2664 70.8321 54.2664H46.7071C44.7742 54.2664 43.0003 55.2738 42.0765 56.8981C40.7245 59.2745 39.3454 62.071 37.977 65.2081C37.0464 67.3376 36.1114 69.6608 35.1936 72.1145C31.5865 81.7923 28.4012 93.2014 25.7267 106.028C25.2088 108.516 24.7 110.925 24.2088 113.258C20.6423 130.17 17.8231 143.528 18.4766 152.813C19.1253 162.027 23.1937 167.111 32.0801 169.812C33.261 170.168 34.4428 170.384 35.5876 170.45C35.8507 170.467 36.1114 170.472 36.3698 170.472C50.8241 170.472 60.4788 147.188 64.6445 137.142C65.4635 135.165 66.0556 133.737 66.5181 132.852L66.7162 132.473C68.9478 128.21 70.7603 124.749 74.0023 123.165V123.06L75.2214 122.676C76.1461 122.388 77.1623 122.242 78.2445 122.242H81.5597L82.0242 122.568C84.5193 124.304 87.4729 125.224 90.5665 125.224C93.6605 125.224 96.6129 124.304 99.1077 122.568L99.5749 122.242H148.289L148.755 122.568C151.249 124.304 154.201 125.224 157.295 125.224C160.393 125.224 163.347 124.304 165.841 122.568L166.306 122.242ZM211.618 173.854C207.539 173.854 203.564 172.4 199.762 169.513C189.859 161.994 183.49 146.637 180.069 138.386C179.311 136.559 178.712 135.115 178.318 134.361L178.109 133.96C176.438 130.773 175.118 128.257 173.471 126.883C172.424 126.009 171.279 125.62 169.756 125.62H167.445C164.447 127.572 160.95 128.6 157.295 128.6C153.644 128.6 150.149 127.572 147.15 125.62H100.712C97.7126 127.572 94.2179 128.6 90.5665 128.6C86.9155 128.6 83.4196 127.572 80.4218 125.62H78.2445C77.5957 125.62 77.0185 125.689 76.489 125.836L76.3199 125.891C73.6896 126.71 72.1738 129.603 69.8819 133.982L69.6826 134.361C69.2887 135.115 68.6906 136.556 67.933 138.383C63.4983 149.079 53.2272 173.848 36.3769 173.85C36.0444 173.85 35.7116 173.839 35.3722 173.82C33.9365 173.737 32.4696 173.472 31.0084 173.03C20.6527 169.88 15.6991 163.716 14.9469 153.04C14.2622 143.304 16.9782 130.421 20.7408 112.591C21.2332 110.261 21.7396 107.856 22.2563 105.37C24.9643 92.3833 28.1962 80.8148 31.86 70.9822C32.7986 68.4711 33.7582 66.0927 34.7104 63.9099C36.1254 60.6678 37.5575 57.7652 38.9678 55.2871C40.51 52.5747 43.4764 50.8896 46.7071 50.8896H70.8321C73.1634 50.8896 75.4057 51.9333 76.831 53.6815L77.0268 53.9227C78.7927 56.0987 80.3186 57.9809 84.8447 57.9809H163.156C167.682 57.9809 169.207 56.0987 170.974 53.9227L171.169 53.6838C172.595 51.9333 174.837 50.8896 177.168 50.8896H201.295C204.524 50.8896 207.491 52.5747 209.033 55.2871C211.43 59.5001 215.103 67.0755 218.986 79.2367C219.441 80.6654 219.889 82.1252 220.318 83.576L220.384 83.8024C222.344 90.4482 224.146 97.702 225.742 105.37C226.261 107.856 226.768 110.261 227.26 112.591C231.022 130.421 233.74 143.304 233.054 153.04C232.301 163.716 227.35 169.88 216.995 173.03C216.296 173.242 215.578 173.417 214.86 173.549C213.775 173.751 212.694 173.854 211.618 173.854Z" fill="#2D2F52"/>
<path d="M202.426 49.9894V52.6698H176.123L178.453 48.2422C178.979 47.245 180.05 46.6145 181.22 46.6145H198.887C200.841 46.6145 202.426 48.1262 202.426 49.9894Z" fill="#2D2F52"/>
<path d="M90.5666 97.5395C82.5677 97.5395 76.0604 103.748 76.0604 111.38C76.0604 119.013 82.5677 125.224 90.5666 125.224C98.5642 125.224 105.073 119.013 105.073 111.38C105.073 103.748 98.5642 97.5395 90.5666 97.5395ZM90.5666 128.6C80.6164 128.6 72.5226 120.876 72.5226 111.38C72.5226 101.887 80.6164 94.1635 90.5666 94.1635C100.516 94.1635 108.611 101.887 108.611 111.38C108.611 120.876 100.516 128.6 90.5666 128.6Z" fill="#333557"/>
<path d="M157.296 97.5395C149.299 97.5395 142.792 103.748 142.792 111.38C142.792 119.013 149.299 125.224 157.296 125.224C165.296 125.224 171.803 119.013 171.803 111.38C171.803 103.748 165.296 97.5395 157.296 97.5395ZM157.296 128.6C147.347 128.6 139.254 120.876 139.254 111.38C139.254 101.887 147.347 94.1635 157.296 94.1635C167.246 94.1635 175.341 101.887 175.341 111.38C175.341 120.876 167.246 128.6 157.296 128.6Z" fill="#333557"/>
<path d="M94.9895 61.3565V76.0433C94.9895 78.6816 97.2377 80.827 100.001 80.827H148C150.763 80.827 153.011 78.6816 153.011 76.0433V61.3565H94.9895ZM148 84.2038H100.001C95.2862 84.2038 91.4521 80.5428 91.4521 76.0433V57.9809H156.55V76.0433C156.55 80.5428 152.714 84.2038 148 84.2038Z" fill="#2D2F52"/>
<path d="M59.167 62.792C46.8936 62.792 36.9076 72.3215 36.9076 84.0348C36.9076 95.7482 46.8936 105.276 59.167 105.276C71.4416 105.276 81.4265 95.7482 81.4265 84.0348C81.4265 72.3215 71.4416 62.792 59.167 62.792ZM59.167 107.978C45.3315 107.978 34.0779 97.2352 34.0779 84.0348C34.0779 70.8319 45.3315 60.0906 59.167 60.0906C73.0011 60.0906 84.2573 70.8319 84.2573 84.0348C84.2573 97.2352 73.0011 107.978 59.167 107.978Z" fill="#333557"/>
<path d="M189.274 62.4546C176.804 62.4546 166.662 72.1355 166.662 84.0348C166.662 95.9327 176.804 105.614 189.274 105.614C201.743 105.614 211.887 95.9327 211.887 84.0348C211.887 72.1355 201.743 62.4546 189.274 62.4546ZM189.274 107.64C175.635 107.64 164.538 97.0495 164.538 84.0348C164.538 71.0176 175.635 60.4278 189.274 60.4278C202.914 60.4278 214.01 71.0176 214.01 84.0348C214.01 97.0495 202.914 107.64 189.274 107.64Z" fill="#333557"/>
<path d="M122.585 101C118.61 101 115.376 104.086 115.376 107.878C115.376 111.671 118.61 114.758 122.585 114.758C126.559 114.758 129.795 111.671 129.795 107.878C129.795 104.086 126.559 101 122.585 101ZM122.585 118.134C116.659 118.134 111.838 113.534 111.838 107.878C111.838 102.224 116.659 97.6224 122.585 97.6224C128.511 97.6224 133.331 102.224 133.331 107.878C133.331 113.534 128.511 118.134 122.585 118.134Z" fill="#333557"/>
<path d="M59.6759 77.2818C58.0616 78.5058 59.4546 79.7929 58.0616 79.7929C57.1218 79.7929 55.3746 78.4529 54.3316 77.577V70.039L61.8449 69.797C62.2237 69.7848 62.5183 69.4828 62.5067 69.1235C62.4928 68.772 62.1914 68.492 61.8229 68.492H54.3524C53.4776 68.492 52.7707 69.2351 52.7707 70.1531V77.9286C52.7707 78.4684 53.0223 78.976 53.4429 79.2854L58.7278 82.584L63.0175 77.0287C63.0175 77.0287 61.2887 76.0589 59.6759 77.2818Z" fill="white"/>
<path d="M74.328 78.4274H66.1785C65.6142 78.4274 65.0824 78.6663 64.757 79.0688L61.3002 84.1121L65.3882 88.5074H68.1879L65.6828 88.1094L62.3815 84.0348L65.985 79.9158H74.4484V83.5737C73.7498 83.6201 72.9676 83.9994 72.3465 84.6539C71.9409 85.083 71.6654 85.564 71.5298 86.0305C71.3432 86.6643 71.6096 87.3389 72.1519 87.7391C72.663 88.1151 73.3467 88.2201 73.9421 87.9877C74.3882 87.8142 74.8264 87.5322 75.2099 87.1254C75.3826 86.9463 75.5309 86.7549 75.6549 86.5593C75.7765 86.3657 75.8587 86.1522 75.9017 85.9311C75.9699 85.564 76.0779 84.9446 76.0684 84.6131V79.9356C76.0684 79.1019 75.2897 78.4274 74.328 78.4274Z" fill="white"/>
<path d="M52.5726 85.1184C52.203 84.2978 50.7524 84.101 49.3327 84.685C48.1868 85.1515 47.4141 85.9841 47.3503 86.7195H41.8705V79.9147H50.333L55.0175 84.1121L51.5599 79.0677C51.2354 78.6652 50.7038 78.4262 50.1381 78.4262H41.99C41.028 78.4262 40.2494 79.1019 40.2494 79.9356V86.6974C40.2494 87.5322 41.028 88.2068 41.99 88.2068H50.1381C50.7038 88.2068 51.2354 87.9656 51.5599 87.5653L52.2736 86.5228C52.6411 86.0506 52.764 85.5473 52.5726 85.1184Z" fill="white"/>
<path d="M187.64 78.7999C186.136 78.5335 184.738 77.6721 183.799 76.4558C182.862 75.2374 182.42 73.6561 182.602 72.1202C182.752 70.5766 183.572 69.1046 184.792 68.0654C186.014 67.018 187.655 66.4343 189.302 66.4298C190.949 66.442 192.584 67.0469 193.797 68.0985C195.004 69.1502 195.822 70.6241 195.956 72.1708C196.122 73.7079 195.672 75.2869 194.72 76.4979C193.771 77.7075 192.365 78.559 190.861 78.8132C192.301 78.3399 193.527 77.4069 194.288 76.218C195.069 75.0381 195.344 73.6075 195.133 72.2682C194.925 70.9281 194.199 69.6809 193.129 68.8173C192.074 67.9392 190.694 67.4395 189.297 67.4415C187.901 67.4305 186.516 67.9171 185.452 68.7853C184.916 69.2153 184.459 69.7372 184.112 70.3221C183.767 70.9092 183.534 71.5552 183.422 72.2241C183.194 73.5622 183.464 74.9928 184.23 76.1815C184.983 77.3758 186.203 78.3167 187.64 78.7999Z" fill="white"/>
<path d="M191.279 98.8685C190.151 99.3308 188.85 99.4358 187.608 99.1892C186.367 98.9347 185.197 98.3046 184.304 97.4067C183.848 96.9612 183.483 96.4392 183.192 95.8829C182.888 95.3278 182.705 94.7198 182.585 94.1061C182.369 92.8642 182.556 91.5683 183.093 90.4204C183.642 89.2737 184.557 88.2951 185.67 87.6318C186.234 87.3077 186.842 87.0623 187.472 86.8964C188.106 86.7438 188.76 86.6719 189.41 86.6974C190.058 86.7382 190.697 86.8435 191.304 87.0479C191.907 87.2636 192.478 87.5455 192.991 87.905C193.996 88.6436 194.781 89.6389 195.146 90.7579C194.564 89.7328 193.703 88.889 192.701 88.3194C192.196 88.0352 191.656 87.8275 191.099 87.6814C190.54 87.5489 189.967 87.4824 189.398 87.488C187.113 87.5158 184.957 88.8813 184.06 90.8385C183.587 91.8027 183.424 92.903 183.576 93.9623C183.717 95.0238 184.199 96.0434 184.92 96.8813C185.651 97.7107 186.629 98.3686 187.745 98.7114C188.855 99.0675 190.082 99.1173 191.279 98.8685Z" fill="white"/>
<path d="M180.141 89.777C179.016 90.2381 177.714 90.3432 176.472 90.0977C175.23 89.8432 174.06 89.2131 173.168 88.3118C172.711 87.8696 172.346 87.3465 172.055 86.788C171.751 86.2352 171.569 85.6271 171.448 85.0111C171.233 83.7727 171.419 82.4756 171.957 81.3266C172.506 80.1799 173.419 79.2013 174.534 78.5369C175.097 78.214 175.705 77.9697 176.335 77.8015C176.97 77.6512 177.623 77.5793 178.273 77.6048C178.921 77.6435 179.563 77.7497 180.169 77.9541C180.77 78.1721 181.34 78.454 181.854 78.8112C182.858 79.5509 183.644 80.5459 184.01 81.6661C183.428 80.6391 182.566 79.7975 181.564 79.2257C181.06 78.9426 180.519 78.7337 179.964 78.5887C179.403 78.4563 178.832 78.3897 178.262 78.3954C175.975 78.4229 173.82 79.7887 172.922 81.7447C172.45 82.7112 172.287 83.8115 172.439 84.8696C172.581 85.9289 173.062 86.9485 173.784 87.7887C174.515 88.6181 175.492 89.276 176.607 89.6188C177.718 89.9726 178.946 90.0224 180.141 89.777Z" fill="white"/>
<path d="M203.872 89.777C202.747 90.2381 201.445 90.3432 200.204 90.0977C198.961 89.8432 197.791 89.2131 196.899 88.3118C196.442 87.8696 196.077 87.3465 195.786 86.788C195.482 86.2352 195.3 85.6271 195.179 85.0111C194.964 83.7727 195.15 82.4756 195.688 81.3266C196.237 80.1799 197.15 79.2013 198.265 78.5369C198.828 78.214 199.437 77.9697 200.066 77.8015C200.701 77.6512 201.354 77.5793 202.004 77.6048C202.652 77.6435 203.294 77.7497 203.9 77.9541C204.501 78.1721 205.071 78.454 205.585 78.8112C206.589 79.5509 207.375 80.5459 207.741 81.6661C207.16 80.6391 206.297 79.7975 205.295 79.2257C204.791 78.9426 204.25 78.7337 203.695 78.5887C203.134 78.4563 202.563 78.3897 201.993 78.3954C199.706 78.4229 197.551 79.7887 196.653 81.7447C196.182 82.7112 196.018 83.8115 196.17 84.8696C196.313 85.9289 196.793 86.9485 197.515 87.7887C198.246 88.6181 199.223 89.276 200.338 89.6188C201.449 89.9726 202.678 90.0224 203.872 89.777Z" fill="white"/>
<path d="M123.528 109.777C122.822 109.216 121.17 109.694 120.963 110.451C120.758 111.212 122.055 113.098 124.738 112.845C127.421 112.591 127.939 109.526 126.27 108.907C125.062 108.455 123.528 109.777 123.528 109.777Z" fill="white"/>
<path d="M90.5378 107.61C91.6523 107.394 92.9189 107.742 93.8308 108.52C94.759 109.283 95.3187 110.468 95.3128 111.662C95.3199 112.856 94.7613 114.045 93.832 114.806C92.9201 115.586 91.6523 115.934 90.5378 115.715C91.649 115.503 92.5888 114.979 93.2458 114.247C93.8981 113.512 94.2526 112.594 94.2526 111.662C94.2526 110.731 93.8993 109.81 93.2467 109.075C92.59 108.345 91.649 107.823 90.5378 107.61Z" fill="white"/>
</svg>
